%TF.GenerationSoftware,KiCad,Pcbnew,9.0.7*%
%TF.CreationDate,2026-03-11T18:21:21-05:00*%
%TF.ProjectId,TrailCurrentSwitchback,54726169-6c43-4757-9272-656e74537769,rev?*%
%TF.SameCoordinates,Original*%
%TF.FileFunction,Legend,Bot*%
%TF.FilePolarity,Positive*%
%FSLAX46Y46*%
G04 Gerber Fmt 4.6, Leading zero omitted, Abs format (unit mm)*
G04 Created by KiCad (PCBNEW 9.0.7) date 2026-03-11 18:21:21*
%MOMM*%
%LPD*%
G01*
G04 APERTURE LIST*
%ADD10C,0.150000*%
%ADD11C,0.120000*%
G04 APERTURE END LIST*
D10*
X142297333Y-70536819D02*
X142297333Y-71251104D01*
X142297333Y-71251104D02*
X142344952Y-71393961D01*
X142344952Y-71393961D02*
X142440190Y-71489200D01*
X142440190Y-71489200D02*
X142583047Y-71536819D01*
X142583047Y-71536819D02*
X142678285Y-71536819D01*
X141868761Y-70632057D02*
X141821142Y-70584438D01*
X141821142Y-70584438D02*
X141725904Y-70536819D01*
X141725904Y-70536819D02*
X141487809Y-70536819D01*
X141487809Y-70536819D02*
X141392571Y-70584438D01*
X141392571Y-70584438D02*
X141344952Y-70632057D01*
X141344952Y-70632057D02*
X141297333Y-70727295D01*
X141297333Y-70727295D02*
X141297333Y-70822533D01*
X141297333Y-70822533D02*
X141344952Y-70965390D01*
X141344952Y-70965390D02*
X141916380Y-71536819D01*
X141916380Y-71536819D02*
X141297333Y-71536819D01*
X129724333Y-70790819D02*
X129724333Y-71505104D01*
X129724333Y-71505104D02*
X129771952Y-71647961D01*
X129771952Y-71647961D02*
X129867190Y-71743200D01*
X129867190Y-71743200D02*
X130010047Y-71790819D01*
X130010047Y-71790819D02*
X130105285Y-71790819D01*
X128724333Y-71790819D02*
X129295761Y-71790819D01*
X129010047Y-71790819D02*
X129010047Y-70790819D01*
X129010047Y-70790819D02*
X129105285Y-70933676D01*
X129105285Y-70933676D02*
X129200523Y-71028914D01*
X129200523Y-71028914D02*
X129295761Y-71076533D01*
D11*
%TO.C,J2*%
X143450000Y-69790000D02*
X143450000Y-71120000D01*
X143450000Y-72390000D02*
X143450000Y-120710000D01*
X144780000Y-69790000D02*
X143450000Y-69790000D01*
X146110000Y-72390000D02*
X143450000Y-72390000D01*
X146110000Y-72390000D02*
X146110000Y-120710000D01*
X146110000Y-120710000D02*
X143450000Y-120710000D01*
%TO.C,J1*%
X125670000Y-69790000D02*
X125670000Y-71120000D01*
X125670000Y-72390000D02*
X125670000Y-120710000D01*
X127000000Y-69790000D02*
X125670000Y-69790000D01*
X128330000Y-72390000D02*
X125670000Y-72390000D01*
X128330000Y-72390000D02*
X128330000Y-120710000D01*
X128330000Y-120710000D02*
X125670000Y-120710000D01*
%TD*%
M02*
