%TF.GenerationSoftware,KiCad,Pcbnew,9.0.7*%
%TF.CreationDate,2026-03-11T18:21:21-05:00*%
%TF.ProjectId,TrailCurrentSwitchback,54726169-6c43-4757-9272-656e74537769,rev?*%
%TF.SameCoordinates,Original*%
%TF.FileFunction,Copper,L1,Top*%
%TF.FilePolarity,Positive*%
%FSLAX46Y46*%
G04 Gerber Fmt 4.6, Leading zero omitted, Abs format (unit mm)*
G04 Created by KiCad (PCBNEW 9.0.7) date 2026-03-11 18:21:21*
%MOMM*%
%LPD*%
G01*
G04 APERTURE LIST*
G04 Aperture macros list*
%AMRoundRect*
0 Rectangle with rounded corners*
0 $1 Rounding radius*
0 $2 $3 $4 $5 $6 $7 $8 $9 X,Y pos of 4 corners*
0 Add a 4 corners polygon primitive as box body*
4,1,4,$2,$3,$4,$5,$6,$7,$8,$9,$2,$3,0*
0 Add four circle primitives for the rounded corners*
1,1,$1+$1,$2,$3*
1,1,$1+$1,$4,$5*
1,1,$1+$1,$6,$7*
1,1,$1+$1,$8,$9*
0 Add four rect primitives between the rounded corners*
20,1,$1+$1,$2,$3,$4,$5,0*
20,1,$1+$1,$4,$5,$6,$7,0*
20,1,$1+$1,$6,$7,$8,$9,0*
20,1,$1+$1,$8,$9,$2,$3,0*%
G04 Aperture macros list end*
%TA.AperFunction,SMDPad,CuDef*%
%ADD10RoundRect,0.250000X-0.625000X0.400000X-0.625000X-0.400000X0.625000X-0.400000X0.625000X0.400000X0*%
%TD*%
%TA.AperFunction,SMDPad,CuDef*%
%ADD11R,1.750000X0.600000*%
%TD*%
%TA.AperFunction,SMDPad,CuDef*%
%ADD12R,1.300000X4.500000*%
%TD*%
%TA.AperFunction,SMDPad,CuDef*%
%ADD13R,1.800000X3.900000*%
%TD*%
%TA.AperFunction,ComponentPad*%
%ADD14R,1.700000X1.700000*%
%TD*%
%TA.AperFunction,ComponentPad*%
%ADD15C,1.700000*%
%TD*%
%TA.AperFunction,Conductor*%
%ADD16C,0.400000*%
%TD*%
%TA.AperFunction,Conductor*%
%ADD17C,0.200000*%
%TD*%
%TA.AperFunction,Conductor*%
%ADD18C,0.600000*%
%TD*%
%TA.AperFunction,Conductor*%
%ADD19C,0.800000*%
%TD*%
G04 APERTURE END LIST*
D10*
%TO.P,R1,1*%
%TO.N,GND*%
X138430000Y-97510000D03*
%TO.P,R1,2*%
%TO.N,Net-(IC1-RS)*%
X138430000Y-100610000D03*
%TD*%
D11*
%TO.P,IC1,1,D*%
%TO.N,/CAN_RX*%
X133330000Y-102870000D03*
%TO.P,IC1,2,GND*%
%TO.N,GND*%
X133330000Y-104140000D03*
%TO.P,IC1,3,VCC*%
%TO.N,+3.3V*%
X133330000Y-105410000D03*
%TO.P,IC1,4,R*%
%TO.N,/CAN_TX*%
X133330000Y-106680000D03*
%TO.P,IC1,5,VREF*%
%TO.N,unconnected-(IC1-VREF-Pad5)*%
X138430000Y-106680000D03*
%TO.P,IC1,6,CANL*%
%TO.N,/CAN_L*%
X138430000Y-105410000D03*
%TO.P,IC1,7,CANH*%
%TO.N,/CAN_H*%
X138430000Y-104140000D03*
%TO.P,IC1,8,RS*%
%TO.N,Net-(IC1-RS)*%
X138430000Y-102870000D03*
%TD*%
D12*
%TO.P,J3,1,1*%
%TO.N,/CAN_L*%
X134660000Y-111760000D03*
%TO.P,J3,2,2*%
%TO.N,/CAN_H*%
X137160000Y-111760000D03*
D13*
%TO.P,J3,SH1*%
%TO.N,N/C*%
X131460000Y-118560000D03*
%TO.P,J3,SH2*%
X140360000Y-118560000D03*
%TD*%
D14*
%TO.P,J2,1,Pin_1*%
%TO.N,unconnected-(J2-Pin_1-Pad1)*%
X144780000Y-71120000D03*
D15*
%TO.P,J2,2,Pin_2*%
%TO.N,unconnected-(J2-Pin_2-Pad2)*%
X144780000Y-73660000D03*
%TO.P,J2,3,Pin_3*%
%TO.N,GND*%
X144780000Y-76200000D03*
%TO.P,J2,4,Pin_4*%
%TO.N,unconnected-(J2-Pin_4-Pad4)*%
X144780000Y-78740000D03*
%TO.P,J2,5,Pin_5*%
%TO.N,unconnected-(J2-Pin_5-Pad5)*%
X144780000Y-81280000D03*
%TO.P,J2,6,Pin_6*%
%TO.N,unconnected-(J2-Pin_6-Pad6)*%
X144780000Y-83820000D03*
%TO.P,J2,7,Pin_7*%
%TO.N,unconnected-(J2-Pin_7-Pad7)*%
X144780000Y-86360000D03*
%TO.P,J2,8,Pin_8*%
%TO.N,GND*%
X144780000Y-88900000D03*
%TO.P,J2,9,Pin_9*%
%TO.N,unconnected-(J2-Pin_9-Pad9)*%
X144780000Y-91440000D03*
%TO.P,J2,10,Pin_10*%
%TO.N,unconnected-(J2-Pin_10-Pad10)*%
X144780000Y-93980000D03*
%TO.P,J2,11,Pin_11*%
%TO.N,unconnected-(J2-Pin_11-Pad11)*%
X144780000Y-96520000D03*
%TO.P,J2,12,Pin_12*%
%TO.N,unconnected-(J2-Pin_12-Pad12)*%
X144780000Y-99060000D03*
%TO.P,J2,13,Pin_13*%
%TO.N,GND*%
X144780000Y-101600000D03*
%TO.P,J2,14,Pin_14*%
%TO.N,unconnected-(J2-Pin_14-Pad14)*%
X144780000Y-104140000D03*
%TO.P,J2,15,Pin_15*%
%TO.N,unconnected-(J2-Pin_15-Pad15)*%
X144780000Y-106680000D03*
%TO.P,J2,16,Pin_16*%
%TO.N,unconnected-(J2-Pin_16-Pad16)*%
X144780000Y-109220000D03*
%TO.P,J2,17,Pin_17*%
%TO.N,unconnected-(J2-Pin_17-Pad17)*%
X144780000Y-111760000D03*
%TO.P,J2,18,Pin_18*%
%TO.N,GND*%
X144780000Y-114300000D03*
%TO.P,J2,19,Pin_19*%
%TO.N,unconnected-(J2-Pin_19-Pad19)*%
X144780000Y-116840000D03*
%TO.P,J2,20,Pin_20*%
%TO.N,unconnected-(J2-Pin_20-Pad20)*%
X144780000Y-119380000D03*
%TD*%
D14*
%TO.P,J1,1,Pin_1*%
%TO.N,unconnected-(J1-Pin_1-Pad1)*%
X127000000Y-71120000D03*
D15*
%TO.P,J1,2,Pin_2*%
%TO.N,unconnected-(J1-Pin_2-Pad2)*%
X127000000Y-73660000D03*
%TO.P,J1,3,Pin_3*%
%TO.N,GND*%
X127000000Y-76200000D03*
%TO.P,J1,4,Pin_4*%
%TO.N,+3.3V*%
X127000000Y-78740000D03*
%TO.P,J1,5,Pin_5*%
X127000000Y-81280000D03*
%TO.P,J1,6,Pin_6*%
%TO.N,unconnected-(J1-Pin_6-Pad6)*%
X127000000Y-83820000D03*
%TO.P,J1,7,Pin_7*%
%TO.N,unconnected-(J1-Pin_7-Pad7)*%
X127000000Y-86360000D03*
%TO.P,J1,8,Pin_8*%
%TO.N,GND*%
X127000000Y-88900000D03*
%TO.P,J1,9,Pin_9*%
%TO.N,unconnected-(J1-Pin_9-Pad9)*%
X127000000Y-91440000D03*
%TO.P,J1,10,Pin_10*%
%TO.N,unconnected-(J1-Pin_10-Pad10)*%
X127000000Y-93980000D03*
%TO.P,J1,11,Pin_11*%
%TO.N,+3.3V*%
X127000000Y-96520000D03*
%TO.P,J1,12,Pin_12*%
%TO.N,unconnected-(J1-Pin_12-Pad12)*%
X127000000Y-99060000D03*
%TO.P,J1,13,Pin_13*%
%TO.N,GND*%
X127000000Y-101600000D03*
%TO.P,J1,14,Pin_14*%
%TO.N,/CAN_RX*%
X127000000Y-104140000D03*
%TO.P,J1,15,Pin_15*%
%TO.N,/CAN_TX*%
X127000000Y-106680000D03*
%TO.P,J1,16,Pin_16*%
%TO.N,unconnected-(J1-Pin_16-Pad16)*%
X127000000Y-109220000D03*
%TO.P,J1,17,Pin_17*%
%TO.N,unconnected-(J1-Pin_17-Pad17)*%
X127000000Y-111760000D03*
%TO.P,J1,18,Pin_18*%
%TO.N,GND*%
X127000000Y-114300000D03*
%TO.P,J1,19,Pin_19*%
%TO.N,unconnected-(J1-Pin_19-Pad19)*%
X127000000Y-116840000D03*
%TO.P,J1,20,Pin_20*%
%TO.N,unconnected-(J1-Pin_20-Pad20)*%
X127000000Y-119380000D03*
%TD*%
D16*
%TO.N,/CAN_L*%
X140970000Y-106045000D02*
X140970000Y-107950000D01*
X135153400Y-108585000D02*
X134620000Y-109118400D01*
D17*
X134660000Y-110758000D02*
X134660000Y-111760000D01*
X134620000Y-110718000D02*
X134660000Y-110758000D01*
D16*
X138430000Y-105410000D02*
X140335000Y-105410000D01*
X134620000Y-109118400D02*
X134620000Y-110718000D01*
X140970000Y-107950000D02*
X140335000Y-108585000D01*
X140335000Y-108585000D02*
X135153400Y-108585000D01*
X140335000Y-105410000D02*
X140970000Y-106045000D01*
D18*
%TO.N,/CAN_RX*%
X129540000Y-104140000D02*
X130810000Y-102870000D01*
X130810000Y-102870000D02*
X133330000Y-102870000D01*
X127000000Y-104140000D02*
X129540000Y-104140000D01*
%TO.N,GND*%
X130810000Y-101600000D02*
X127000000Y-101600000D01*
X132080000Y-100330000D02*
X130810000Y-101600000D01*
D19*
X142815000Y-88900000D02*
X144780000Y-88900000D01*
D18*
X135995000Y-101705000D02*
X134620000Y-100330000D01*
D19*
X138430000Y-93285000D02*
X142815000Y-88900000D01*
X138430000Y-97510000D02*
X138430000Y-93285000D01*
D18*
X133330000Y-104140000D02*
X135068000Y-104140000D01*
X134620000Y-100330000D02*
X132080000Y-100330000D01*
X135995000Y-103213000D02*
X135995000Y-101705000D01*
X135068000Y-104140000D02*
X135995000Y-103213000D01*
%TO.N,/CAN_TX*%
X127000000Y-106680000D02*
X133330000Y-106680000D01*
D16*
%TO.N,/CAN_H*%
X139065000Y-111760000D02*
X137160000Y-111760000D01*
X140335000Y-104140000D02*
X142240000Y-106045000D01*
X142240000Y-108585000D02*
X139065000Y-111760000D01*
X142240000Y-106045000D02*
X142240000Y-108585000D01*
X138430000Y-104140000D02*
X140335000Y-104140000D01*
D18*
%TO.N,Net-(IC1-RS)*%
X138430000Y-102870000D02*
X138430000Y-100610000D01*
%TD*%
%TA.AperFunction,Conductor*%
%TO.N,+3.3V*%
G36*
X125680607Y-69840185D02*
G01*
X125726362Y-69892989D01*
X125736306Y-69962147D01*
X125712835Y-70018810D01*
X125706206Y-70027665D01*
X125706202Y-70027671D01*
X125655908Y-70162517D01*
X125649501Y-70222116D01*
X125649501Y-70222123D01*
X125649500Y-70222135D01*
X125649500Y-72017870D01*
X125649501Y-72017876D01*
X125655908Y-72077483D01*
X125706202Y-72212328D01*
X125706206Y-72212335D01*
X125792452Y-72327544D01*
X125792455Y-72327547D01*
X125907664Y-72413793D01*
X125907671Y-72413797D01*
X126039082Y-72462810D01*
X126095016Y-72504681D01*
X126119433Y-72570145D01*
X126104582Y-72638418D01*
X126083431Y-72666673D01*
X125969889Y-72780215D01*
X125844951Y-72952179D01*
X125748444Y-73141585D01*
X125682753Y-73343760D01*
X125649500Y-73553713D01*
X125649500Y-73766286D01*
X125682753Y-73976239D01*
X125748444Y-74178414D01*
X125844951Y-74367820D01*
X125969890Y-74539786D01*
X126120213Y-74690109D01*
X126292182Y-74815050D01*
X126300946Y-74819516D01*
X126351742Y-74867491D01*
X126368536Y-74935312D01*
X126345998Y-75001447D01*
X126300946Y-75040484D01*
X126292182Y-75044949D01*
X126120213Y-75169890D01*
X125969890Y-75320213D01*
X125844951Y-75492179D01*
X125748444Y-75681585D01*
X125682753Y-75883760D01*
X125649500Y-76093713D01*
X125649500Y-76306286D01*
X125682753Y-76516239D01*
X125748444Y-76718414D01*
X125844951Y-76907820D01*
X125969890Y-77079786D01*
X126120213Y-77230109D01*
X126292179Y-77355048D01*
X126292181Y-77355049D01*
X126292184Y-77355051D01*
X126301493Y-77359794D01*
X126352290Y-77407766D01*
X126369087Y-77475587D01*
X126346552Y-77541722D01*
X126301505Y-77580760D01*
X126292446Y-77585376D01*
X126292440Y-77585380D01*
X126238282Y-77624727D01*
X126238282Y-77624728D01*
X126870591Y-78257037D01*
X126807007Y-78274075D01*
X126692993Y-78339901D01*
X126599901Y-78432993D01*
X126534075Y-78547007D01*
X126517037Y-78610591D01*
X125884728Y-77978282D01*
X125884727Y-77978282D01*
X125845380Y-78032439D01*
X125748904Y-78221782D01*
X125683242Y-78423869D01*
X125683242Y-78423872D01*
X125650000Y-78633753D01*
X125650000Y-78846246D01*
X125683242Y-79056127D01*
X125683242Y-79056130D01*
X125748904Y-79258217D01*
X125845375Y-79447550D01*
X125884728Y-79501716D01*
X126517037Y-78869408D01*
X126534075Y-78932993D01*
X126599901Y-79047007D01*
X126692993Y-79140099D01*
X126807007Y-79205925D01*
X126870591Y-79222962D01*
X126269971Y-79823581D01*
X126348711Y-79940895D01*
X126349920Y-79944729D01*
X126352844Y-79947491D01*
X126360343Y-79977778D01*
X126369727Y-80007529D01*
X126368671Y-80011408D01*
X126369638Y-80015312D01*
X126359573Y-80044844D01*
X126351383Y-80074947D01*
X126348397Y-80077640D01*
X126347100Y-80081447D01*
X126302051Y-80120483D01*
X126292440Y-80125380D01*
X126238282Y-80164727D01*
X126238282Y-80164728D01*
X126870591Y-80797037D01*
X126807007Y-80814075D01*
X126692993Y-80879901D01*
X126599901Y-80972993D01*
X126534075Y-81087007D01*
X126517037Y-81150591D01*
X125884728Y-80518282D01*
X125884727Y-80518282D01*
X125845380Y-80572439D01*
X125748904Y-80761782D01*
X125683242Y-80963869D01*
X125683242Y-80963872D01*
X125650000Y-81173753D01*
X125650000Y-81386246D01*
X125683242Y-81596127D01*
X125683242Y-81596130D01*
X125748904Y-81798217D01*
X125845375Y-81987550D01*
X125884728Y-82041716D01*
X126517037Y-81409408D01*
X126534075Y-81472993D01*
X126599901Y-81587007D01*
X126692993Y-81680099D01*
X126807007Y-81745925D01*
X126870590Y-81762962D01*
X126238282Y-82395269D01*
X126238282Y-82395270D01*
X126292452Y-82434626D01*
X126292451Y-82434626D01*
X126301495Y-82439234D01*
X126352292Y-82487208D01*
X126369087Y-82555029D01*
X126346550Y-82621164D01*
X126301499Y-82660202D01*
X126292182Y-82664949D01*
X126120213Y-82789890D01*
X125969890Y-82940213D01*
X125844951Y-83112179D01*
X125748444Y-83301585D01*
X125682753Y-83503760D01*
X125649500Y-83713713D01*
X125649500Y-83926286D01*
X125682753Y-84136239D01*
X125748444Y-84338414D01*
X125844951Y-84527820D01*
X125969890Y-84699786D01*
X126120213Y-84850109D01*
X126292182Y-84975050D01*
X126300946Y-84979516D01*
X126351742Y-85027491D01*
X126368536Y-85095312D01*
X126345998Y-85161447D01*
X126300946Y-85200484D01*
X126292182Y-85204949D01*
X126120213Y-85329890D01*
X125969890Y-85480213D01*
X125844951Y-85652179D01*
X125748444Y-85841585D01*
X125682753Y-86043760D01*
X125649500Y-86253713D01*
X125649500Y-86466286D01*
X125682753Y-86676239D01*
X125748444Y-86878414D01*
X125844951Y-87067820D01*
X125969890Y-87239786D01*
X126120213Y-87390109D01*
X126292182Y-87515050D01*
X126300946Y-87519516D01*
X126351742Y-87567491D01*
X126368536Y-87635312D01*
X126345998Y-87701447D01*
X126300946Y-87740484D01*
X126292182Y-87744949D01*
X126120213Y-87869890D01*
X125969890Y-88020213D01*
X125844951Y-88192179D01*
X125748444Y-88381585D01*
X125682753Y-88583760D01*
X125649500Y-88793713D01*
X125649500Y-89006286D01*
X125682753Y-89216239D01*
X125748444Y-89418414D01*
X125844951Y-89607820D01*
X125969890Y-89779786D01*
X126120213Y-89930109D01*
X126292182Y-90055050D01*
X126300946Y-90059516D01*
X126351742Y-90107491D01*
X126368536Y-90175312D01*
X126345998Y-90241447D01*
X126300946Y-90280484D01*
X126292182Y-90284949D01*
X126120213Y-90409890D01*
X125969890Y-90560213D01*
X125844951Y-90732179D01*
X125748444Y-90921585D01*
X125682753Y-91123760D01*
X125649500Y-91333713D01*
X125649500Y-91546286D01*
X125682753Y-91756239D01*
X125748444Y-91958414D01*
X125844951Y-92147820D01*
X125969890Y-92319786D01*
X126120213Y-92470109D01*
X126292182Y-92595050D01*
X126300946Y-92599516D01*
X126351742Y-92647491D01*
X126368536Y-92715312D01*
X126345998Y-92781447D01*
X126300946Y-92820484D01*
X126292182Y-92824949D01*
X126120213Y-92949890D01*
X125969890Y-93100213D01*
X125844951Y-93272179D01*
X125748444Y-93461585D01*
X125682753Y-93663760D01*
X125649500Y-93873713D01*
X125649500Y-94086286D01*
X125682753Y-94296239D01*
X125748444Y-94498414D01*
X125844951Y-94687820D01*
X125969890Y-94859786D01*
X126120213Y-95010109D01*
X126292179Y-95135048D01*
X126292181Y-95135049D01*
X126292184Y-95135051D01*
X126301493Y-95139794D01*
X126352290Y-95187766D01*
X126369087Y-95255587D01*
X126346552Y-95321722D01*
X126301505Y-95360760D01*
X126292446Y-95365376D01*
X126292440Y-95365380D01*
X126238282Y-95404727D01*
X126238282Y-95404728D01*
X126870591Y-96037037D01*
X126807007Y-96054075D01*
X126692993Y-96119901D01*
X126599901Y-96212993D01*
X126534075Y-96327007D01*
X126517037Y-96390591D01*
X125884728Y-95758282D01*
X125884727Y-95758282D01*
X125845380Y-95812439D01*
X125748904Y-96001782D01*
X125683242Y-96203869D01*
X125683242Y-96203872D01*
X125650000Y-96413753D01*
X125650000Y-96626246D01*
X125683242Y-96836127D01*
X125683242Y-96836130D01*
X125748904Y-97038217D01*
X125845375Y-97227550D01*
X125884728Y-97281716D01*
X126517037Y-96649408D01*
X126534075Y-96712993D01*
X126599901Y-96827007D01*
X126692993Y-96920099D01*
X126807007Y-96985925D01*
X126870590Y-97002962D01*
X126238282Y-97635269D01*
X126238282Y-97635270D01*
X126292452Y-97674626D01*
X126292451Y-97674626D01*
X126301495Y-97679234D01*
X126352292Y-97727208D01*
X126369087Y-97795029D01*
X126346550Y-97861164D01*
X126301499Y-97900202D01*
X126292182Y-97904949D01*
X126120213Y-98029890D01*
X125969890Y-98180213D01*
X125844951Y-98352179D01*
X125748444Y-98541585D01*
X125682753Y-98743760D01*
X125649500Y-98953713D01*
X125649500Y-99166287D01*
X125682754Y-99376243D01*
X125742546Y-99560264D01*
X125748444Y-99578414D01*
X125844951Y-99767820D01*
X125969890Y-99939786D01*
X126120213Y-100090109D01*
X126292182Y-100215050D01*
X126300946Y-100219516D01*
X126351742Y-100267491D01*
X126368536Y-100335312D01*
X126345998Y-100401447D01*
X126300946Y-100440484D01*
X126292182Y-100444949D01*
X126120213Y-100569890D01*
X125969890Y-100720213D01*
X125844951Y-100892179D01*
X125748444Y-101081585D01*
X125682753Y-101283760D01*
X125649500Y-101493713D01*
X125649500Y-101706286D01*
X125674526Y-101864297D01*
X125682754Y-101916243D01*
X125732550Y-102069500D01*
X125748444Y-102118414D01*
X125844951Y-102307820D01*
X125969890Y-102479786D01*
X126120213Y-102630109D01*
X126292182Y-102755050D01*
X126300946Y-102759516D01*
X126351742Y-102807491D01*
X126368536Y-102875312D01*
X126345998Y-102941447D01*
X126300946Y-102980484D01*
X126292182Y-102984949D01*
X126120213Y-103109890D01*
X125969890Y-103260213D01*
X125844951Y-103432179D01*
X125748444Y-103621585D01*
X125682753Y-103823760D01*
X125649500Y-104033713D01*
X125649500Y-104246287D01*
X125682754Y-104456243D01*
X125693032Y-104487876D01*
X125748444Y-104658414D01*
X125844951Y-104847820D01*
X125969890Y-105019786D01*
X126120213Y-105170109D01*
X126292182Y-105295050D01*
X126300946Y-105299516D01*
X126351742Y-105347491D01*
X126368536Y-105415312D01*
X126345998Y-105481447D01*
X126300946Y-105520484D01*
X126292182Y-105524949D01*
X126120213Y-105649890D01*
X125969890Y-105800213D01*
X125844951Y-105972179D01*
X125748444Y-106161585D01*
X125682753Y-106363760D01*
X125649500Y-106573713D01*
X125649500Y-106786287D01*
X125682754Y-106996243D01*
X125693032Y-107027876D01*
X125748444Y-107198414D01*
X125844951Y-107387820D01*
X125969890Y-107559786D01*
X126120213Y-107710109D01*
X126292182Y-107835050D01*
X126300946Y-107839516D01*
X126351742Y-107887491D01*
X126368536Y-107955312D01*
X126345998Y-108021447D01*
X126300946Y-108060484D01*
X126292182Y-108064949D01*
X126120213Y-108189890D01*
X125969890Y-108340213D01*
X125844951Y-108512179D01*
X125748444Y-108701585D01*
X125682753Y-108903760D01*
X125649500Y-109113713D01*
X125649500Y-109326286D01*
X125682753Y-109536239D01*
X125748444Y-109738414D01*
X125844951Y-109927820D01*
X125969890Y-110099786D01*
X126120213Y-110250109D01*
X126292182Y-110375050D01*
X126300946Y-110379516D01*
X126351742Y-110427491D01*
X126368536Y-110495312D01*
X126345998Y-110561447D01*
X126300946Y-110600484D01*
X126292182Y-110604949D01*
X126120213Y-110729890D01*
X125969890Y-110880213D01*
X125844951Y-111052179D01*
X125748444Y-111241585D01*
X125682753Y-111443760D01*
X125649500Y-111653713D01*
X125649500Y-111866286D01*
X125682753Y-112076239D01*
X125748444Y-112278414D01*
X125844951Y-112467820D01*
X125969890Y-112639786D01*
X126120213Y-112790109D01*
X126292182Y-112915050D01*
X126300946Y-112919516D01*
X126351742Y-112967491D01*
X126368536Y-113035312D01*
X126345998Y-113101447D01*
X126300946Y-113140484D01*
X126292182Y-113144949D01*
X126120213Y-113269890D01*
X125969890Y-113420213D01*
X125844951Y-113592179D01*
X125748444Y-113781585D01*
X125682753Y-113983760D01*
X125649500Y-114193713D01*
X125649500Y-114406286D01*
X125682753Y-114616239D01*
X125748444Y-114818414D01*
X125844951Y-115007820D01*
X125969890Y-115179786D01*
X126120213Y-115330109D01*
X126292182Y-115455050D01*
X126300946Y-115459516D01*
X126351742Y-115507491D01*
X126368536Y-115575312D01*
X126345998Y-115641447D01*
X126300946Y-115680484D01*
X126292182Y-115684949D01*
X126120213Y-115809890D01*
X125969890Y-115960213D01*
X125844951Y-116132179D01*
X125748444Y-116321585D01*
X125682753Y-116523760D01*
X125649500Y-116733713D01*
X125649500Y-116946286D01*
X125682753Y-117156239D01*
X125748444Y-117358414D01*
X125844951Y-117547820D01*
X125969890Y-117719786D01*
X126120213Y-117870109D01*
X126292182Y-117995050D01*
X126300946Y-117999516D01*
X126351742Y-118047491D01*
X126368536Y-118115312D01*
X126345998Y-118181447D01*
X126300946Y-118220484D01*
X126292182Y-118224949D01*
X126120213Y-118349890D01*
X125969890Y-118500213D01*
X125844951Y-118672179D01*
X125748444Y-118861585D01*
X125682753Y-119063760D01*
X125649500Y-119273713D01*
X125649500Y-119486286D01*
X125682753Y-119696239D01*
X125748444Y-119898414D01*
X125844951Y-120087820D01*
X125969890Y-120259786D01*
X126117923Y-120407819D01*
X126151408Y-120469142D01*
X126146424Y-120538834D01*
X126104552Y-120594767D01*
X126039088Y-120619184D01*
X126030242Y-120619500D01*
X123869500Y-120619500D01*
X123802461Y-120599815D01*
X123756706Y-120547011D01*
X123745500Y-120495500D01*
X123745500Y-69944500D01*
X123765185Y-69877461D01*
X123817989Y-69831706D01*
X123869500Y-69820500D01*
X125613568Y-69820500D01*
X125680607Y-69840185D01*
G37*
%TD.AperFunction*%
%TA.AperFunction,Conductor*%
G36*
X143460607Y-69840185D02*
G01*
X143506362Y-69892989D01*
X143516306Y-69962147D01*
X143492835Y-70018810D01*
X143486206Y-70027665D01*
X143486202Y-70027671D01*
X143435908Y-70162517D01*
X143429501Y-70222116D01*
X143429501Y-70222123D01*
X143429500Y-70222135D01*
X143429500Y-72017870D01*
X143429501Y-72017876D01*
X143435908Y-72077483D01*
X143486202Y-72212328D01*
X143486206Y-72212335D01*
X143572452Y-72327544D01*
X143572455Y-72327547D01*
X143687664Y-72413793D01*
X143687671Y-72413797D01*
X143819082Y-72462810D01*
X143875016Y-72504681D01*
X143899433Y-72570145D01*
X143884582Y-72638418D01*
X143863431Y-72666673D01*
X143749889Y-72780215D01*
X143624951Y-72952179D01*
X143528444Y-73141585D01*
X143462753Y-73343760D01*
X143429500Y-73553713D01*
X143429500Y-73766286D01*
X143462753Y-73976239D01*
X143528444Y-74178414D01*
X143624951Y-74367820D01*
X143749890Y-74539786D01*
X143900213Y-74690109D01*
X144072182Y-74815050D01*
X144080946Y-74819516D01*
X144131742Y-74867491D01*
X144148536Y-74935312D01*
X144125998Y-75001447D01*
X144080946Y-75040484D01*
X144072182Y-75044949D01*
X143900213Y-75169890D01*
X143749890Y-75320213D01*
X143624951Y-75492179D01*
X143528444Y-75681585D01*
X143462753Y-75883760D01*
X143429500Y-76093713D01*
X143429500Y-76306286D01*
X143462753Y-76516239D01*
X143528444Y-76718414D01*
X143624951Y-76907820D01*
X143749890Y-77079786D01*
X143900213Y-77230109D01*
X144072182Y-77355050D01*
X144080946Y-77359516D01*
X144131742Y-77407491D01*
X144148536Y-77475312D01*
X144125998Y-77541447D01*
X144080946Y-77580484D01*
X144072182Y-77584949D01*
X143900213Y-77709890D01*
X143749890Y-77860213D01*
X143624951Y-78032179D01*
X143528444Y-78221585D01*
X143462753Y-78423760D01*
X143429500Y-78633713D01*
X143429500Y-78846286D01*
X143462753Y-79056239D01*
X143528444Y-79258414D01*
X143624951Y-79447820D01*
X143749890Y-79619786D01*
X143900213Y-79770109D01*
X144072182Y-79895050D01*
X144080946Y-79899516D01*
X144131742Y-79947491D01*
X144148536Y-80015312D01*
X144125998Y-80081447D01*
X144080946Y-80120484D01*
X144072182Y-80124949D01*
X143900213Y-80249890D01*
X143749890Y-80400213D01*
X143624951Y-80572179D01*
X143528444Y-80761585D01*
X143462753Y-80963760D01*
X143429500Y-81173713D01*
X143429500Y-81386286D01*
X143462753Y-81596239D01*
X143528444Y-81798414D01*
X143624951Y-81987820D01*
X143749890Y-82159786D01*
X143900213Y-82310109D01*
X144072182Y-82435050D01*
X144080946Y-82439516D01*
X144131742Y-82487491D01*
X144148536Y-82555312D01*
X144125998Y-82621447D01*
X144080946Y-82660484D01*
X144072182Y-82664949D01*
X143900213Y-82789890D01*
X143749890Y-82940213D01*
X143624951Y-83112179D01*
X143528444Y-83301585D01*
X143462753Y-83503760D01*
X143429500Y-83713713D01*
X143429500Y-83926286D01*
X143462753Y-84136239D01*
X143528444Y-84338414D01*
X143624951Y-84527820D01*
X143749890Y-84699786D01*
X143900213Y-84850109D01*
X144072182Y-84975050D01*
X144080946Y-84979516D01*
X144131742Y-85027491D01*
X144148536Y-85095312D01*
X144125998Y-85161447D01*
X144080946Y-85200484D01*
X144072182Y-85204949D01*
X143900213Y-85329890D01*
X143749890Y-85480213D01*
X143624951Y-85652179D01*
X143528444Y-85841585D01*
X143462753Y-86043760D01*
X143429500Y-86253713D01*
X143429500Y-86466286D01*
X143462753Y-86676239D01*
X143528444Y-86878414D01*
X143624951Y-87067820D01*
X143749890Y-87239786D01*
X143900213Y-87390109D01*
X144072182Y-87515050D01*
X144080946Y-87519516D01*
X144131742Y-87567491D01*
X144148536Y-87635312D01*
X144125998Y-87701447D01*
X144080946Y-87740484D01*
X144072182Y-87744949D01*
X143900213Y-87869890D01*
X143900209Y-87869894D01*
X143806923Y-87963181D01*
X143745600Y-87996666D01*
X143719242Y-87999500D01*
X142726306Y-87999500D01*
X142552341Y-88034103D01*
X142552332Y-88034106D01*
X142388457Y-88101984D01*
X142388456Y-88101985D01*
X142253465Y-88192184D01*
X142253464Y-88192185D01*
X142240961Y-88200538D01*
X142240960Y-88200539D01*
X137730538Y-92710960D01*
X137730534Y-92710965D01*
X137718858Y-92728441D01*
X137718857Y-92728443D01*
X137631990Y-92858446D01*
X137631985Y-92858456D01*
X137598046Y-92940393D01*
X137564106Y-93022329D01*
X137564103Y-93022341D01*
X137529500Y-93196303D01*
X137529500Y-96328942D01*
X137509815Y-96395981D01*
X137470598Y-96434479D01*
X137438669Y-96454174D01*
X137336342Y-96517289D01*
X137212289Y-96641342D01*
X137120187Y-96790663D01*
X137120185Y-96790668D01*
X137105083Y-96836243D01*
X137065001Y-96957203D01*
X137065001Y-96957204D01*
X137065000Y-96957204D01*
X137054500Y-97059983D01*
X137054500Y-97960001D01*
X137054501Y-97960019D01*
X137065000Y-98062796D01*
X137065001Y-98062799D01*
X137103907Y-98180208D01*
X137120186Y-98229334D01*
X137212288Y-98378656D01*
X137336344Y-98502712D01*
X137485666Y-98594814D01*
X137652203Y-98649999D01*
X137754991Y-98660500D01*
X139105008Y-98660499D01*
X139207797Y-98649999D01*
X139374334Y-98594814D01*
X139523656Y-98502712D01*
X139647712Y-98378656D01*
X139739814Y-98229334D01*
X139794999Y-98062797D01*
X139805500Y-97960009D01*
X139805499Y-97059992D01*
X139794999Y-96957203D01*
X139739814Y-96790666D01*
X139647712Y-96641344D01*
X139523656Y-96517288D01*
X139389402Y-96434480D01*
X139342679Y-96382533D01*
X139330500Y-96328942D01*
X139330500Y-93709361D01*
X139350185Y-93642322D01*
X139366819Y-93621680D01*
X143151680Y-89836819D01*
X143213003Y-89803334D01*
X143239361Y-89800500D01*
X143719242Y-89800500D01*
X143786281Y-89820185D01*
X143806923Y-89836819D01*
X143900213Y-89930109D01*
X144072182Y-90055050D01*
X144080946Y-90059516D01*
X144131742Y-90107491D01*
X144148536Y-90175312D01*
X144125998Y-90241447D01*
X144080946Y-90280484D01*
X144072182Y-90284949D01*
X143900213Y-90409890D01*
X143749890Y-90560213D01*
X143624951Y-90732179D01*
X143528444Y-90921585D01*
X143462753Y-91123760D01*
X143429500Y-91333713D01*
X143429500Y-91546286D01*
X143462753Y-91756239D01*
X143528444Y-91958414D01*
X143624951Y-92147820D01*
X143749890Y-92319786D01*
X143900213Y-92470109D01*
X144072182Y-92595050D01*
X144080946Y-92599516D01*
X144131742Y-92647491D01*
X144148536Y-92715312D01*
X144125998Y-92781447D01*
X144080946Y-92820484D01*
X144072182Y-92824949D01*
X143900213Y-92949890D01*
X143749890Y-93100213D01*
X143624951Y-93272179D01*
X143528444Y-93461585D01*
X143462753Y-93663760D01*
X143429500Y-93873713D01*
X143429500Y-94086286D01*
X143462753Y-94296239D01*
X143528444Y-94498414D01*
X143624951Y-94687820D01*
X143749890Y-94859786D01*
X143900213Y-95010109D01*
X144072182Y-95135050D01*
X144080946Y-95139516D01*
X144131742Y-95187491D01*
X144148536Y-95255312D01*
X144125998Y-95321447D01*
X144080946Y-95360484D01*
X144072182Y-95364949D01*
X143900213Y-95489890D01*
X143749890Y-95640213D01*
X143624951Y-95812179D01*
X143528444Y-96001585D01*
X143462753Y-96203760D01*
X143434438Y-96382533D01*
X143429500Y-96413713D01*
X143429500Y-96626287D01*
X143431885Y-96641344D01*
X143462735Y-96836127D01*
X143462754Y-96836243D01*
X143502056Y-96957203D01*
X143528444Y-97038414D01*
X143624951Y-97227820D01*
X143749890Y-97399786D01*
X143900213Y-97550109D01*
X144072182Y-97675050D01*
X144080946Y-97679516D01*
X144131742Y-97727491D01*
X144148536Y-97795312D01*
X144125998Y-97861447D01*
X144080946Y-97900484D01*
X144072182Y-97904949D01*
X143900213Y-98029890D01*
X143749890Y-98180213D01*
X143624951Y-98352179D01*
X143528444Y-98541585D01*
X143462753Y-98743760D01*
X143429500Y-98953713D01*
X143429500Y-99166287D01*
X143462754Y-99376243D01*
X143522546Y-99560264D01*
X143528444Y-99578414D01*
X143624951Y-99767820D01*
X143749890Y-99939786D01*
X143900213Y-100090109D01*
X144072182Y-100215050D01*
X144080946Y-100219516D01*
X144131742Y-100267491D01*
X144148536Y-100335312D01*
X144125998Y-100401447D01*
X144080946Y-100440484D01*
X144072182Y-100444949D01*
X143900213Y-100569890D01*
X143749890Y-100720213D01*
X143624951Y-100892179D01*
X143528444Y-101081585D01*
X143462753Y-101283760D01*
X143429500Y-101493713D01*
X143429500Y-101706286D01*
X143454526Y-101864297D01*
X143462754Y-101916243D01*
X143512550Y-102069500D01*
X143528444Y-102118414D01*
X143624951Y-102307820D01*
X143749890Y-102479786D01*
X143900213Y-102630109D01*
X144072182Y-102755050D01*
X144080946Y-102759516D01*
X144131742Y-102807491D01*
X144148536Y-102875312D01*
X144125998Y-102941447D01*
X144080946Y-102980484D01*
X144072182Y-102984949D01*
X143900213Y-103109890D01*
X143749890Y-103260213D01*
X143624951Y-103432179D01*
X143528444Y-103621585D01*
X143462753Y-103823760D01*
X143429500Y-104033713D01*
X143429500Y-104246287D01*
X143462754Y-104456243D01*
X143473032Y-104487876D01*
X143528444Y-104658414D01*
X143624951Y-104847820D01*
X143749890Y-105019786D01*
X143900213Y-105170109D01*
X144072182Y-105295050D01*
X144080946Y-105299516D01*
X144131742Y-105347491D01*
X144148536Y-105415312D01*
X144125998Y-105481447D01*
X144080946Y-105520484D01*
X144072182Y-105524949D01*
X143900213Y-105649890D01*
X143749890Y-105800213D01*
X143624951Y-105972179D01*
X143528444Y-106161585D01*
X143462753Y-106363760D01*
X143429500Y-106573713D01*
X143429500Y-106786287D01*
X143462754Y-106996243D01*
X143473032Y-107027876D01*
X143528444Y-107198414D01*
X143624951Y-107387820D01*
X143749890Y-107559786D01*
X143900213Y-107710109D01*
X144072182Y-107835050D01*
X144080946Y-107839516D01*
X144131742Y-107887491D01*
X144148536Y-107955312D01*
X144125998Y-108021447D01*
X144080946Y-108060484D01*
X144072182Y-108064949D01*
X143900213Y-108189890D01*
X143749890Y-108340213D01*
X143624951Y-108512179D01*
X143528444Y-108701585D01*
X143462753Y-108903760D01*
X143429500Y-109113713D01*
X143429500Y-109326286D01*
X143462753Y-109536239D01*
X143528444Y-109738414D01*
X143624951Y-109927820D01*
X143749890Y-110099786D01*
X143900213Y-110250109D01*
X144072182Y-110375050D01*
X144080946Y-110379516D01*
X144131742Y-110427491D01*
X144148536Y-110495312D01*
X144125998Y-110561447D01*
X144080946Y-110600484D01*
X144072182Y-110604949D01*
X143900213Y-110729890D01*
X143749890Y-110880213D01*
X143624951Y-111052179D01*
X143528444Y-111241585D01*
X143462753Y-111443760D01*
X143429500Y-111653713D01*
X143429500Y-111866286D01*
X143462753Y-112076239D01*
X143528444Y-112278414D01*
X143624951Y-112467820D01*
X143749890Y-112639786D01*
X143900213Y-112790109D01*
X144072182Y-112915050D01*
X144080946Y-112919516D01*
X144131742Y-112967491D01*
X144148536Y-113035312D01*
X144125998Y-113101447D01*
X144080946Y-113140484D01*
X144072182Y-113144949D01*
X143900213Y-113269890D01*
X143749890Y-113420213D01*
X143624951Y-113592179D01*
X143528444Y-113781585D01*
X143462753Y-113983760D01*
X143429500Y-114193713D01*
X143429500Y-114406286D01*
X143462753Y-114616239D01*
X143528444Y-114818414D01*
X143624951Y-115007820D01*
X143749890Y-115179786D01*
X143900213Y-115330109D01*
X144072182Y-115455050D01*
X144080946Y-115459516D01*
X144131742Y-115507491D01*
X144148536Y-115575312D01*
X144125998Y-115641447D01*
X144080946Y-115680484D01*
X144072182Y-115684949D01*
X143900213Y-115809890D01*
X143749890Y-115960213D01*
X143624951Y-116132179D01*
X143528444Y-116321585D01*
X143462753Y-116523760D01*
X143429500Y-116733713D01*
X143429500Y-116946286D01*
X143462753Y-117156239D01*
X143528444Y-117358414D01*
X143624951Y-117547820D01*
X143749890Y-117719786D01*
X143900213Y-117870109D01*
X144072182Y-117995050D01*
X144080946Y-117999516D01*
X144131742Y-118047491D01*
X144148536Y-118115312D01*
X144125998Y-118181447D01*
X144080946Y-118220484D01*
X144072182Y-118224949D01*
X143900213Y-118349890D01*
X143749890Y-118500213D01*
X143624951Y-118672179D01*
X143528444Y-118861585D01*
X143462753Y-119063760D01*
X143429500Y-119273713D01*
X143429500Y-119486286D01*
X143462753Y-119696239D01*
X143528444Y-119898414D01*
X143624951Y-120087820D01*
X143749890Y-120259786D01*
X143897923Y-120407819D01*
X143931408Y-120469142D01*
X143926424Y-120538834D01*
X143884552Y-120594767D01*
X143819088Y-120619184D01*
X143810242Y-120619500D01*
X141884500Y-120619500D01*
X141817461Y-120599815D01*
X141771706Y-120547011D01*
X141760500Y-120495500D01*
X141760499Y-116562129D01*
X141760498Y-116562123D01*
X141760497Y-116562116D01*
X141754091Y-116502517D01*
X141703796Y-116367669D01*
X141703795Y-116367668D01*
X141703793Y-116367664D01*
X141617547Y-116252455D01*
X141617544Y-116252452D01*
X141502335Y-116166206D01*
X141502328Y-116166202D01*
X141367482Y-116115908D01*
X141367483Y-116115908D01*
X141307883Y-116109501D01*
X141307881Y-116109500D01*
X141307873Y-116109500D01*
X141307864Y-116109500D01*
X139412129Y-116109500D01*
X139412123Y-116109501D01*
X139352516Y-116115908D01*
X139217671Y-116166202D01*
X139217664Y-116166206D01*
X139102455Y-116252452D01*
X139102452Y-116252455D01*
X139016206Y-116367664D01*
X139016202Y-116367671D01*
X138965908Y-116502517D01*
X138959501Y-116562116D01*
X138959501Y-116562123D01*
X138959500Y-116562135D01*
X138959501Y-120495500D01*
X138939816Y-120562539D01*
X138887012Y-120608294D01*
X138835501Y-120619500D01*
X132984500Y-120619500D01*
X132917461Y-120599815D01*
X132871706Y-120547011D01*
X132860500Y-120495500D01*
X132860499Y-116562129D01*
X132860498Y-116562123D01*
X132860497Y-116562116D01*
X132854091Y-116502517D01*
X132803796Y-116367669D01*
X132803795Y-116367668D01*
X132803793Y-116367664D01*
X132717547Y-116252455D01*
X132717544Y-116252452D01*
X132602335Y-116166206D01*
X132602328Y-116166202D01*
X132467482Y-116115908D01*
X132467483Y-116115908D01*
X132407883Y-116109501D01*
X132407881Y-116109500D01*
X132407873Y-116109500D01*
X132407864Y-116109500D01*
X130512129Y-116109500D01*
X130512123Y-116109501D01*
X130452516Y-116115908D01*
X130317671Y-116166202D01*
X130317664Y-116166206D01*
X130202455Y-116252452D01*
X130202452Y-116252455D01*
X130116206Y-116367664D01*
X130116202Y-116367671D01*
X130065908Y-116502517D01*
X130059501Y-116562116D01*
X130059501Y-116562123D01*
X130059500Y-116562135D01*
X130059501Y-120495500D01*
X130039816Y-120562539D01*
X129987012Y-120608294D01*
X129935501Y-120619500D01*
X127969758Y-120619500D01*
X127902719Y-120599815D01*
X127856964Y-120547011D01*
X127847020Y-120477853D01*
X127876045Y-120414297D01*
X127882077Y-120407819D01*
X128030104Y-120259792D01*
X128030106Y-120259788D01*
X128030109Y-120259786D01*
X128155048Y-120087820D01*
X128155047Y-120087820D01*
X128155051Y-120087816D01*
X128251557Y-119898412D01*
X128317246Y-119696243D01*
X128350500Y-119486287D01*
X128350500Y-119273713D01*
X128317246Y-119063757D01*
X128251557Y-118861588D01*
X128155051Y-118672184D01*
X128155049Y-118672181D01*
X128155048Y-118672179D01*
X128030109Y-118500213D01*
X127879786Y-118349890D01*
X127707820Y-118224951D01*
X127707115Y-118224591D01*
X127699054Y-118220485D01*
X127648259Y-118172512D01*
X127631463Y-118104692D01*
X127653999Y-118038556D01*
X127699054Y-117999515D01*
X127707816Y-117995051D01*
X127729789Y-117979086D01*
X127879786Y-117870109D01*
X127879788Y-117870106D01*
X127879792Y-117870104D01*
X128030104Y-117719792D01*
X128030106Y-117719788D01*
X128030109Y-117719786D01*
X128155048Y-117547820D01*
X128155047Y-117547820D01*
X128155051Y-117547816D01*
X128251557Y-117358412D01*
X128317246Y-117156243D01*
X128350500Y-116946287D01*
X128350500Y-116733713D01*
X128317246Y-116523757D01*
X128251557Y-116321588D01*
X128155051Y-116132184D01*
X128155049Y-116132181D01*
X128155048Y-116132179D01*
X128030109Y-115960213D01*
X127879786Y-115809890D01*
X127707820Y-115684951D01*
X127707115Y-115684591D01*
X127699054Y-115680485D01*
X127648259Y-115632512D01*
X127631463Y-115564692D01*
X127653999Y-115498556D01*
X127699054Y-115459515D01*
X127707816Y-115455051D01*
X127729789Y-115439086D01*
X127879786Y-115330109D01*
X127879788Y-115330106D01*
X127879792Y-115330104D01*
X128030104Y-115179792D01*
X128030106Y-115179788D01*
X128030109Y-115179786D01*
X128155048Y-115007820D01*
X128155047Y-115007820D01*
X128155051Y-115007816D01*
X128251557Y-114818412D01*
X128317246Y-114616243D01*
X128350500Y-114406287D01*
X128350500Y-114193713D01*
X128317246Y-113983757D01*
X128251557Y-113781588D01*
X128155051Y-113592184D01*
X128155049Y-113592181D01*
X128155048Y-113592179D01*
X128030109Y-113420213D01*
X127879786Y-113269890D01*
X127707820Y-113144951D01*
X127707115Y-113144591D01*
X127699054Y-113140485D01*
X127648259Y-113092512D01*
X127631463Y-113024692D01*
X127653999Y-112958556D01*
X127699054Y-112919515D01*
X127707816Y-112915051D01*
X127729789Y-112899086D01*
X127879786Y-112790109D01*
X127879788Y-112790106D01*
X127879792Y-112790104D01*
X128030104Y-112639792D01*
X128030106Y-112639788D01*
X128030109Y-112639786D01*
X128155048Y-112467820D01*
X128155047Y-112467820D01*
X128155051Y-112467816D01*
X128251557Y-112278412D01*
X128317246Y-112076243D01*
X128350500Y-111866287D01*
X128350500Y-111653713D01*
X128317246Y-111443757D01*
X128251557Y-111241588D01*
X128155051Y-111052184D01*
X128155049Y-111052181D01*
X128155048Y-111052179D01*
X128030109Y-110880213D01*
X127879786Y-110729890D01*
X127707820Y-110604951D01*
X127707115Y-110604591D01*
X127699054Y-110600485D01*
X127648259Y-110552512D01*
X127631463Y-110484692D01*
X127653999Y-110418556D01*
X127699054Y-110379515D01*
X127707816Y-110375051D01*
X127729789Y-110359086D01*
X127879786Y-110250109D01*
X127879788Y-110250106D01*
X127879792Y-110250104D01*
X128030104Y-110099792D01*
X128030106Y-110099788D01*
X128030109Y-110099786D01*
X128155048Y-109927820D01*
X128155047Y-109927820D01*
X128155051Y-109927816D01*
X128251557Y-109738412D01*
X128317246Y-109536243D01*
X128328984Y-109462135D01*
X133509500Y-109462135D01*
X133509500Y-114057870D01*
X133509501Y-114057876D01*
X133515908Y-114117483D01*
X133566202Y-114252328D01*
X133566206Y-114252335D01*
X133652452Y-114367544D01*
X133652455Y-114367547D01*
X133767664Y-114453793D01*
X133767671Y-114453797D01*
X133902517Y-114504091D01*
X133902516Y-114504091D01*
X133909444Y-114504835D01*
X133962127Y-114510500D01*
X135357872Y-114510499D01*
X135417483Y-114504091D01*
X135552331Y-114453796D01*
X135667546Y-114367546D01*
X135753796Y-114252331D01*
X135793818Y-114145027D01*
X135835689Y-114089093D01*
X135901153Y-114064676D01*
X135969426Y-114079527D01*
X136018832Y-114128932D01*
X136026182Y-114145027D01*
X136066202Y-114252328D01*
X136066206Y-114252335D01*
X136152452Y-114367544D01*
X136152455Y-114367547D01*
X136267664Y-114453793D01*
X136267671Y-114453797D01*
X136402517Y-114504091D01*
X136402516Y-114504091D01*
X136409444Y-114504835D01*
X136462127Y-114510500D01*
X137857872Y-114510499D01*
X137917483Y-114504091D01*
X138052331Y-114453796D01*
X138167546Y-114367546D01*
X138253796Y-114252331D01*
X138304091Y-114117483D01*
X138310500Y-114057873D01*
X138310500Y-112584500D01*
X138330185Y-112517461D01*
X138382989Y-112471706D01*
X138434500Y-112460500D01*
X139133996Y-112460500D01*
X139225040Y-112442389D01*
X139269328Y-112433580D01*
X139333069Y-112407177D01*
X139396807Y-112380777D01*
X139396808Y-112380776D01*
X139396811Y-112380775D01*
X139511543Y-112304114D01*
X142784114Y-109031543D01*
X142860775Y-108916811D01*
X142913580Y-108789328D01*
X142931033Y-108701588D01*
X142940500Y-108653996D01*
X142940500Y-105976004D01*
X142913581Y-105840677D01*
X142913580Y-105840676D01*
X142913580Y-105840672D01*
X142903929Y-105817372D01*
X142860778Y-105713195D01*
X142860776Y-105713191D01*
X142860775Y-105713189D01*
X142818484Y-105649896D01*
X142784114Y-105598457D01*
X142784112Y-105598454D01*
X140781545Y-103595887D01*
X140666807Y-103519222D01*
X140539332Y-103466421D01*
X140539322Y-103466418D01*
X140403996Y-103439500D01*
X140403994Y-103439500D01*
X140403993Y-103439500D01*
X139917256Y-103439500D01*
X139850217Y-103419815D01*
X139804462Y-103367011D01*
X139794518Y-103297853D01*
X139797761Y-103285142D01*
X139797307Y-103285035D01*
X139799089Y-103277491D01*
X139799089Y-103277487D01*
X139799091Y-103277483D01*
X139805500Y-103217873D01*
X139805499Y-102522128D01*
X139799091Y-102462517D01*
X139795024Y-102451614D01*
X139748797Y-102327671D01*
X139748793Y-102327664D01*
X139662547Y-102212455D01*
X139662544Y-102212452D01*
X139547335Y-102126206D01*
X139547328Y-102126202D01*
X139412482Y-102075908D01*
X139412483Y-102075908D01*
X139352883Y-102069501D01*
X139352881Y-102069500D01*
X139352873Y-102069500D01*
X139352864Y-102069500D01*
X139349548Y-102069322D01*
X139349615Y-102068065D01*
X139345814Y-102066949D01*
X139336853Y-102068238D01*
X139312812Y-102057259D01*
X139287461Y-102049815D01*
X139281533Y-102042974D01*
X139273297Y-102039213D01*
X139259007Y-102016978D01*
X139241706Y-101997011D01*
X139239418Y-101986496D01*
X139235523Y-101980435D01*
X139230500Y-101945500D01*
X139230500Y-101832016D01*
X139250185Y-101764977D01*
X139302989Y-101719222D01*
X139315488Y-101714313D01*
X139374334Y-101694814D01*
X139523656Y-101602712D01*
X139647712Y-101478656D01*
X139739814Y-101329334D01*
X139794999Y-101162797D01*
X139805500Y-101060009D01*
X139805499Y-100159992D01*
X139794999Y-100057203D01*
X139739814Y-99890666D01*
X139647712Y-99741344D01*
X139523656Y-99617288D01*
X139430888Y-99560069D01*
X139374336Y-99525187D01*
X139374331Y-99525185D01*
X139372862Y-99524698D01*
X139207797Y-99470001D01*
X139207795Y-99470000D01*
X139105010Y-99459500D01*
X137754998Y-99459500D01*
X137754981Y-99459501D01*
X137652203Y-99470000D01*
X137652200Y-99470001D01*
X137485668Y-99525185D01*
X137485663Y-99525187D01*
X137336342Y-99617289D01*
X137212289Y-99741342D01*
X137120187Y-99890663D01*
X137120186Y-99890666D01*
X137065001Y-100057203D01*
X137065001Y-100057204D01*
X137065000Y-100057204D01*
X137054500Y-100159983D01*
X137054500Y-101060001D01*
X137054501Y-101060019D01*
X137065000Y-101162796D01*
X137065001Y-101162799D01*
X137075576Y-101194711D01*
X137120186Y-101329334D01*
X137212288Y-101478656D01*
X137336344Y-101602712D01*
X137485666Y-101694814D01*
X137485668Y-101694815D01*
X137506110Y-101701588D01*
X137544502Y-101714310D01*
X137564534Y-101728179D01*
X137586703Y-101738303D01*
X137592751Y-101747714D01*
X137601947Y-101754081D01*
X137611302Y-101776580D01*
X137624477Y-101797081D01*
X137626935Y-101814178D01*
X137628772Y-101818596D01*
X137629500Y-101832016D01*
X137629500Y-101945500D01*
X137609815Y-102012539D01*
X137557011Y-102058294D01*
X137510389Y-102068450D01*
X137510423Y-102069099D01*
X137510429Y-102069146D01*
X137510426Y-102069146D01*
X137510436Y-102069324D01*
X137507123Y-102069501D01*
X137447516Y-102075908D01*
X137312671Y-102126202D01*
X137312664Y-102126206D01*
X137197455Y-102212452D01*
X137197452Y-102212455D01*
X137111206Y-102327664D01*
X137111202Y-102327671D01*
X137060910Y-102462513D01*
X137060909Y-102462517D01*
X137054500Y-102522127D01*
X137054500Y-102522134D01*
X137054500Y-102522135D01*
X137054500Y-103217870D01*
X137054501Y-103217876D01*
X137060908Y-103277483D01*
X137111202Y-103412328D01*
X137111205Y-103412334D01*
X137124947Y-103430691D01*
X137149363Y-103496156D01*
X137134510Y-103564429D01*
X137124947Y-103579309D01*
X137111205Y-103597665D01*
X137111202Y-103597671D01*
X137060910Y-103732513D01*
X137060909Y-103732517D01*
X137054500Y-103792127D01*
X137054500Y-103792134D01*
X137054500Y-103792135D01*
X137054500Y-104487870D01*
X137054501Y-104487876D01*
X137060908Y-104547483D01*
X137111202Y-104682328D01*
X137111205Y-104682334D01*
X137124947Y-104700691D01*
X137149363Y-104766156D01*
X137134510Y-104834429D01*
X137124947Y-104849309D01*
X137111205Y-104867665D01*
X137111202Y-104867671D01*
X137060910Y-105002513D01*
X137060909Y-105002517D01*
X137054500Y-105062127D01*
X137054500Y-105062134D01*
X137054500Y-105062135D01*
X137054500Y-105757870D01*
X137054501Y-105757876D01*
X137060908Y-105817483D01*
X137111202Y-105952328D01*
X137111205Y-105952334D01*
X137124947Y-105970691D01*
X137149363Y-106036156D01*
X137134510Y-106104429D01*
X137124947Y-106119309D01*
X137111205Y-106137665D01*
X137111202Y-106137671D01*
X137060910Y-106272513D01*
X137060909Y-106272517D01*
X137054500Y-106332127D01*
X137054500Y-106332134D01*
X137054500Y-106332135D01*
X137054500Y-107027870D01*
X137054501Y-107027876D01*
X137060908Y-107087483D01*
X137111202Y-107222328D01*
X137111206Y-107222335D01*
X137197452Y-107337544D01*
X137197455Y-107337547D01*
X137312664Y-107423793D01*
X137312671Y-107423797D01*
X137447517Y-107474091D01*
X137447516Y-107474091D01*
X137454444Y-107474835D01*
X137507127Y-107480500D01*
X139352872Y-107480499D01*
X139412483Y-107474091D01*
X139547331Y-107423796D01*
X139662546Y-107337546D01*
X139748796Y-107222331D01*
X139799091Y-107087483D01*
X139805500Y-107027873D01*
X139805499Y-106332128D01*
X139799091Y-106272517D01*
X139799090Y-106272513D01*
X139799090Y-106272512D01*
X139797308Y-106264969D01*
X139800106Y-106264307D01*
X139798884Y-106247219D01*
X139794518Y-106216853D01*
X139796415Y-106212697D01*
X139796090Y-106208139D01*
X139810797Y-106181206D01*
X139823543Y-106153297D01*
X139827386Y-106150826D01*
X139829577Y-106146816D01*
X139856510Y-106132110D01*
X139882321Y-106115523D01*
X139888523Y-106114631D01*
X139890901Y-106113333D01*
X139917256Y-106110500D01*
X139993481Y-106110500D01*
X140060520Y-106130185D01*
X140081162Y-106146819D01*
X140233181Y-106298838D01*
X140266666Y-106360161D01*
X140269500Y-106386519D01*
X140269500Y-107608481D01*
X140249815Y-107675520D01*
X140233181Y-107696162D01*
X140081162Y-107848181D01*
X140019839Y-107881666D01*
X139993481Y-107884500D01*
X135084405Y-107884500D01*
X134949077Y-107911418D01*
X134949067Y-107911421D01*
X134821592Y-107964222D01*
X134706854Y-108040887D01*
X134075887Y-108671854D01*
X133999222Y-108786592D01*
X133946420Y-108914069D01*
X133946419Y-108914072D01*
X133941548Y-108938561D01*
X133909161Y-109000471D01*
X133863265Y-109030548D01*
X133767670Y-109066203D01*
X133767664Y-109066206D01*
X133652455Y-109152452D01*
X133652452Y-109152455D01*
X133566206Y-109267664D01*
X133566202Y-109267671D01*
X133515908Y-109402517D01*
X133509501Y-109462116D01*
X133509500Y-109462135D01*
X128328984Y-109462135D01*
X128350500Y-109326287D01*
X128350500Y-109113713D01*
X128317246Y-108903757D01*
X128251557Y-108701588D01*
X128155051Y-108512184D01*
X128155049Y-108512181D01*
X128155048Y-108512179D01*
X128030109Y-108340213D01*
X127879786Y-108189890D01*
X127707820Y-108064951D01*
X127707115Y-108064591D01*
X127699054Y-108060485D01*
X127648259Y-108012512D01*
X127631463Y-107944692D01*
X127653999Y-107878556D01*
X127699054Y-107839515D01*
X127707816Y-107835051D01*
X127729789Y-107819086D01*
X127879786Y-107710109D01*
X127879788Y-107710106D01*
X127879792Y-107710104D01*
X128030104Y-107559792D01*
X128050577Y-107531613D01*
X128105906Y-107488949D01*
X128150894Y-107480500D01*
X133423276Y-107480500D01*
X133423284Y-107480499D01*
X134252871Y-107480499D01*
X134252872Y-107480499D01*
X134312483Y-107474091D01*
X134447331Y-107423796D01*
X134562546Y-107337546D01*
X134648796Y-107222331D01*
X134699091Y-107087483D01*
X134705500Y-107027873D01*
X134705499Y-106332128D01*
X134699091Y-106272517D01*
X134699090Y-106272513D01*
X134648797Y-106137670D01*
X134648796Y-106137669D01*
X134648793Y-106137665D01*
X134634741Y-106118894D01*
X134610323Y-106053432D01*
X134625173Y-105985159D01*
X134634742Y-105970270D01*
X134648351Y-105952091D01*
X134698597Y-105817376D01*
X134698598Y-105817372D01*
X134704999Y-105757844D01*
X134705000Y-105757827D01*
X134705000Y-105660000D01*
X131955000Y-105660000D01*
X131955000Y-105755500D01*
X131935315Y-105822539D01*
X131882511Y-105868294D01*
X131831000Y-105879500D01*
X128150894Y-105879500D01*
X128083855Y-105859815D01*
X128050577Y-105828387D01*
X128030104Y-105800208D01*
X127879792Y-105649896D01*
X127879786Y-105649890D01*
X127707820Y-105524951D01*
X127707115Y-105524591D01*
X127699054Y-105520485D01*
X127648259Y-105472512D01*
X127631463Y-105404692D01*
X127653999Y-105338556D01*
X127699054Y-105299515D01*
X127707816Y-105295051D01*
X127729789Y-105279086D01*
X127879786Y-105170109D01*
X127879788Y-105170106D01*
X127879792Y-105170104D01*
X128030104Y-105019792D01*
X128050577Y-104991613D01*
X128105906Y-104948949D01*
X128150894Y-104940500D01*
X129618844Y-104940500D01*
X129618845Y-104940499D01*
X129773497Y-104909737D01*
X129886166Y-104863067D01*
X129919172Y-104849397D01*
X129919172Y-104849396D01*
X129919179Y-104849394D01*
X130050289Y-104761789D01*
X131105259Y-103706819D01*
X131166582Y-103673334D01*
X131192940Y-103670500D01*
X131830500Y-103670500D01*
X131897539Y-103690185D01*
X131943294Y-103742989D01*
X131954500Y-103794500D01*
X131954500Y-104487870D01*
X131954501Y-104487876D01*
X131960908Y-104547483D01*
X132011202Y-104682328D01*
X132011204Y-104682332D01*
X132021506Y-104696093D01*
X132024948Y-104700691D01*
X132025257Y-104701103D01*
X132049676Y-104766567D01*
X132034826Y-104834840D01*
X132025260Y-104849726D01*
X132011646Y-104867911D01*
X132011645Y-104867913D01*
X131961403Y-105002620D01*
X131961401Y-105002627D01*
X131955000Y-105062155D01*
X131955000Y-105160000D01*
X134705000Y-105160000D01*
X134705000Y-105064500D01*
X134724685Y-104997461D01*
X134777489Y-104951706D01*
X134829000Y-104940500D01*
X135146844Y-104940500D01*
X135146845Y-104940499D01*
X135301497Y-104909737D01*
X135414166Y-104863067D01*
X135447172Y-104849397D01*
X135447172Y-104849396D01*
X135447179Y-104849394D01*
X135578289Y-104761789D01*
X136616789Y-103723289D01*
X136704394Y-103592179D01*
X136764737Y-103446497D01*
X136795500Y-103291842D01*
X136795500Y-103134158D01*
X136795500Y-101626158D01*
X136790836Y-101602712D01*
X136764738Y-101471503D01*
X136704394Y-101325821D01*
X136704392Y-101325818D01*
X136704390Y-101325814D01*
X136616789Y-101194711D01*
X136616786Y-101194707D01*
X135130292Y-99708213D01*
X135130288Y-99708210D01*
X134999185Y-99620609D01*
X134999172Y-99620602D01*
X134853501Y-99560264D01*
X134853489Y-99560261D01*
X134698845Y-99529500D01*
X134698842Y-99529500D01*
X132158842Y-99529500D01*
X132001157Y-99529500D01*
X131978967Y-99533914D01*
X131978966Y-99533914D01*
X131846510Y-99560261D01*
X131846498Y-99560264D01*
X131700827Y-99620602D01*
X131700814Y-99620609D01*
X131585319Y-99697782D01*
X131585318Y-99697783D01*
X131569708Y-99708212D01*
X131569707Y-99708213D01*
X130514741Y-100763181D01*
X130453418Y-100796666D01*
X130427060Y-100799500D01*
X128150894Y-100799500D01*
X128083855Y-100779815D01*
X128050577Y-100748387D01*
X128030104Y-100720208D01*
X127879792Y-100569896D01*
X127879786Y-100569890D01*
X127707820Y-100444951D01*
X127707115Y-100444591D01*
X127699054Y-100440485D01*
X127648259Y-100392512D01*
X127631463Y-100324692D01*
X127653999Y-100258556D01*
X127699054Y-100219515D01*
X127707816Y-100215051D01*
X127729789Y-100199086D01*
X127879786Y-100090109D01*
X127879788Y-100090106D01*
X127879792Y-100090104D01*
X128030104Y-99939792D01*
X128030106Y-99939788D01*
X128030109Y-99939786D01*
X128155048Y-99767820D01*
X128155047Y-99767820D01*
X128155051Y-99767816D01*
X128251557Y-99578412D01*
X128317246Y-99376243D01*
X128350500Y-99166287D01*
X128350500Y-98953713D01*
X128317246Y-98743757D01*
X128251557Y-98541588D01*
X128155051Y-98352184D01*
X128155049Y-98352181D01*
X128155048Y-98352179D01*
X128030109Y-98180213D01*
X127879786Y-98029890D01*
X127707817Y-97904949D01*
X127698504Y-97900204D01*
X127647707Y-97852230D01*
X127630912Y-97784409D01*
X127653449Y-97718274D01*
X127698507Y-97679232D01*
X127707555Y-97674622D01*
X127761716Y-97635270D01*
X127761717Y-97635270D01*
X127129408Y-97002962D01*
X127192993Y-96985925D01*
X127307007Y-96920099D01*
X127400099Y-96827007D01*
X127465925Y-96712993D01*
X127482962Y-96649408D01*
X128115270Y-97281717D01*
X128115270Y-97281716D01*
X128154622Y-97227554D01*
X128251095Y-97038217D01*
X128316757Y-96836130D01*
X128316757Y-96836127D01*
X128350000Y-96626246D01*
X128350000Y-96413753D01*
X128316757Y-96203872D01*
X128316757Y-96203869D01*
X128251095Y-96001782D01*
X128154624Y-95812449D01*
X128115270Y-95758282D01*
X128115269Y-95758282D01*
X127482962Y-96390590D01*
X127465925Y-96327007D01*
X127400099Y-96212993D01*
X127307007Y-96119901D01*
X127192993Y-96054075D01*
X127129409Y-96037037D01*
X127761716Y-95404728D01*
X127707547Y-95365373D01*
X127707547Y-95365372D01*
X127698500Y-95360763D01*
X127647706Y-95312788D01*
X127630912Y-95244966D01*
X127653451Y-95178832D01*
X127698508Y-95139793D01*
X127707816Y-95135051D01*
X127787007Y-95077515D01*
X127879786Y-95010109D01*
X127879788Y-95010106D01*
X127879792Y-95010104D01*
X128030104Y-94859792D01*
X128030106Y-94859788D01*
X128030109Y-94859786D01*
X128155048Y-94687820D01*
X128155047Y-94687820D01*
X128155051Y-94687816D01*
X128251557Y-94498412D01*
X128317246Y-94296243D01*
X128350500Y-94086287D01*
X128350500Y-93873713D01*
X128317246Y-93663757D01*
X128251557Y-93461588D01*
X128155051Y-93272184D01*
X128155049Y-93272181D01*
X128155048Y-93272179D01*
X128030109Y-93100213D01*
X127879786Y-92949890D01*
X127707820Y-92824951D01*
X127707115Y-92824591D01*
X127699054Y-92820485D01*
X127648259Y-92772512D01*
X127631463Y-92704692D01*
X127653999Y-92638556D01*
X127699054Y-92599515D01*
X127707816Y-92595051D01*
X127729789Y-92579086D01*
X127879786Y-92470109D01*
X127879788Y-92470106D01*
X127879792Y-92470104D01*
X128030104Y-92319792D01*
X128030106Y-92319788D01*
X128030109Y-92319786D01*
X128155048Y-92147820D01*
X128155047Y-92147820D01*
X128155051Y-92147816D01*
X128251557Y-91958412D01*
X128317246Y-91756243D01*
X128350500Y-91546287D01*
X128350500Y-91333713D01*
X128317246Y-91123757D01*
X128251557Y-90921588D01*
X128155051Y-90732184D01*
X128155049Y-90732181D01*
X128155048Y-90732179D01*
X128030109Y-90560213D01*
X127879786Y-90409890D01*
X127707820Y-90284951D01*
X127707115Y-90284591D01*
X127699054Y-90280485D01*
X127648259Y-90232512D01*
X127631463Y-90164692D01*
X127653999Y-90098556D01*
X127699054Y-90059515D01*
X127707816Y-90055051D01*
X127729789Y-90039086D01*
X127879786Y-89930109D01*
X127879788Y-89930106D01*
X127879792Y-89930104D01*
X128030104Y-89779792D01*
X128030106Y-89779788D01*
X128030109Y-89779786D01*
X128155048Y-89607820D01*
X128155047Y-89607820D01*
X128155051Y-89607816D01*
X128251557Y-89418412D01*
X128317246Y-89216243D01*
X128350500Y-89006287D01*
X128350500Y-88793713D01*
X128317246Y-88583757D01*
X128251557Y-88381588D01*
X128155051Y-88192184D01*
X128155049Y-88192181D01*
X128155048Y-88192179D01*
X128030109Y-88020213D01*
X127879786Y-87869890D01*
X127707820Y-87744951D01*
X127707115Y-87744591D01*
X127699054Y-87740485D01*
X127648259Y-87692512D01*
X127631463Y-87624692D01*
X127653999Y-87558556D01*
X127699054Y-87519515D01*
X127707816Y-87515051D01*
X127729789Y-87499086D01*
X127879786Y-87390109D01*
X127879788Y-87390106D01*
X127879792Y-87390104D01*
X128030104Y-87239792D01*
X128030106Y-87239788D01*
X128030109Y-87239786D01*
X128155048Y-87067820D01*
X128155047Y-87067820D01*
X128155051Y-87067816D01*
X128251557Y-86878412D01*
X128317246Y-86676243D01*
X128350500Y-86466287D01*
X128350500Y-86253713D01*
X128317246Y-86043757D01*
X128251557Y-85841588D01*
X128155051Y-85652184D01*
X128155049Y-85652181D01*
X128155048Y-85652179D01*
X128030109Y-85480213D01*
X127879786Y-85329890D01*
X127707820Y-85204951D01*
X127707115Y-85204591D01*
X127699054Y-85200485D01*
X127648259Y-85152512D01*
X127631463Y-85084692D01*
X127653999Y-85018556D01*
X127699054Y-84979515D01*
X127707816Y-84975051D01*
X127729789Y-84959086D01*
X127879786Y-84850109D01*
X127879788Y-84850106D01*
X127879792Y-84850104D01*
X128030104Y-84699792D01*
X128030106Y-84699788D01*
X128030109Y-84699786D01*
X128155048Y-84527820D01*
X128155047Y-84527820D01*
X128155051Y-84527816D01*
X128251557Y-84338412D01*
X128317246Y-84136243D01*
X128350500Y-83926287D01*
X128350500Y-83713713D01*
X128317246Y-83503757D01*
X128251557Y-83301588D01*
X128155051Y-83112184D01*
X128155049Y-83112181D01*
X128155048Y-83112179D01*
X128030109Y-82940213D01*
X127879786Y-82789890D01*
X127707817Y-82664949D01*
X127698504Y-82660204D01*
X127647707Y-82612230D01*
X127630912Y-82544409D01*
X127653449Y-82478274D01*
X127698507Y-82439232D01*
X127707555Y-82434622D01*
X127761716Y-82395270D01*
X127761717Y-82395270D01*
X127129408Y-81762962D01*
X127192993Y-81745925D01*
X127307007Y-81680099D01*
X127400099Y-81587007D01*
X127465925Y-81472993D01*
X127482962Y-81409408D01*
X128115270Y-82041717D01*
X128115270Y-82041716D01*
X128154622Y-81987554D01*
X128251095Y-81798217D01*
X128316757Y-81596130D01*
X128316757Y-81596127D01*
X128350000Y-81386246D01*
X128350000Y-81173753D01*
X128316757Y-80963872D01*
X128316757Y-80963869D01*
X128251095Y-80761782D01*
X128154624Y-80572449D01*
X128115270Y-80518282D01*
X128115269Y-80518282D01*
X127482962Y-81150590D01*
X127465925Y-81087007D01*
X127400099Y-80972993D01*
X127307007Y-80879901D01*
X127192993Y-80814075D01*
X127129409Y-80797037D01*
X127761716Y-80164728D01*
X127707550Y-80125375D01*
X127697954Y-80120486D01*
X127647157Y-80072512D01*
X127630361Y-80004692D01*
X127652897Y-79938556D01*
X127697954Y-79899514D01*
X127707554Y-79894622D01*
X127761716Y-79855270D01*
X127761717Y-79855270D01*
X127129408Y-79222962D01*
X127192993Y-79205925D01*
X127307007Y-79140099D01*
X127400099Y-79047007D01*
X127465925Y-78932993D01*
X127482962Y-78869408D01*
X128115270Y-79501717D01*
X128115270Y-79501716D01*
X128154622Y-79447554D01*
X128251095Y-79258217D01*
X128316757Y-79056130D01*
X128316757Y-79056127D01*
X128350000Y-78846246D01*
X128350000Y-78633753D01*
X128316757Y-78423872D01*
X128316757Y-78423869D01*
X128251095Y-78221782D01*
X128154624Y-78032449D01*
X128115270Y-77978282D01*
X128115269Y-77978282D01*
X127482962Y-78610590D01*
X127465925Y-78547007D01*
X127400099Y-78432993D01*
X127307007Y-78339901D01*
X127192993Y-78274075D01*
X127129409Y-78257037D01*
X127761716Y-77624728D01*
X127707547Y-77585373D01*
X127707547Y-77585372D01*
X127698500Y-77580763D01*
X127647706Y-77532788D01*
X127630912Y-77464966D01*
X127653451Y-77398832D01*
X127698508Y-77359793D01*
X127707816Y-77355051D01*
X127787007Y-77297515D01*
X127879786Y-77230109D01*
X127879788Y-77230106D01*
X127879792Y-77230104D01*
X128030104Y-77079792D01*
X128030106Y-77079788D01*
X128030109Y-77079786D01*
X128155048Y-76907820D01*
X128155047Y-76907820D01*
X128155051Y-76907816D01*
X128251557Y-76718412D01*
X128317246Y-76516243D01*
X128350500Y-76306287D01*
X128350500Y-76093713D01*
X128317246Y-75883757D01*
X128251557Y-75681588D01*
X128155051Y-75492184D01*
X128155049Y-75492181D01*
X128155048Y-75492179D01*
X128030109Y-75320213D01*
X127879786Y-75169890D01*
X127707820Y-75044951D01*
X127707115Y-75044591D01*
X127699054Y-75040485D01*
X127648259Y-74992512D01*
X127631463Y-74924692D01*
X127653999Y-74858556D01*
X127699054Y-74819515D01*
X127707816Y-74815051D01*
X127729789Y-74799086D01*
X127879786Y-74690109D01*
X127879788Y-74690106D01*
X127879792Y-74690104D01*
X128030104Y-74539792D01*
X128030106Y-74539788D01*
X128030109Y-74539786D01*
X128155048Y-74367820D01*
X128155047Y-74367820D01*
X128155051Y-74367816D01*
X128251557Y-74178412D01*
X128317246Y-73976243D01*
X128350500Y-73766287D01*
X128350500Y-73553713D01*
X128317246Y-73343757D01*
X128251557Y-73141588D01*
X128155051Y-72952184D01*
X128155049Y-72952181D01*
X128155048Y-72952179D01*
X128030109Y-72780213D01*
X127916569Y-72666673D01*
X127883084Y-72605350D01*
X127888068Y-72535658D01*
X127929940Y-72479725D01*
X127960915Y-72462810D01*
X128092331Y-72413796D01*
X128207546Y-72327546D01*
X128293796Y-72212331D01*
X128344091Y-72077483D01*
X128350500Y-72017873D01*
X128350499Y-70222128D01*
X128344091Y-70162517D01*
X128293796Y-70027669D01*
X128293749Y-70027607D01*
X128287165Y-70018810D01*
X128262748Y-69953346D01*
X128277600Y-69885073D01*
X128327005Y-69835668D01*
X128386432Y-69820500D01*
X143393568Y-69820500D01*
X143460607Y-69840185D01*
G37*
%TD.AperFunction*%
%TD*%
M02*
